<?xml version="1.0" encoding="utf-8"?>
<!-- Generator: Adobe Illustrator 25.2.1, SVG Export Plug-In . SVG Version: 6.00 Build 0)  -->
<svg version="1.1" id="Layer_1" xmlns="http://www.w3.org/2000/svg" xmlns:xlink="http://www.w3.org/1999/xlink" x="0px" y="0px"
	 viewBox="0 0 100 100" style="enable-background:new 0 0 100 100;" xml:space="preserve">
<style type="text/css">
	.st0{fill:#808080;}
	.st1{fill:#FFFFFF;}
	.st2{fill:#34393F;}
	.st3{font-family:'EuphemiaUCAS-Bold';}
	.st4{font-size:58.833px;}
</style>
<g>
	<path class="st0" d="M-81.3,187.4c-33.9,0-67.7,0-101.6,0c0-33.3,0-66.7,0-100c33.9,0,67.7,0,101.6,0
		C-81.3,120.8-81.3,154.1-81.3,187.4z M-122.7,170c1.3,1.6,2.2,3.1,3.4,4.3c5.5,5.2,12.1,6.3,19.3,4.8c5.7-1.2,9.7-4.4,10.7-10.5
		c0.9-5.9-1-10.6-6.2-13.8c-1.5-0.9-3-1.7-4.6-2.5c-2.4-1.2-5-2.2-7.4-3.5c-2.3-1.2-2.9-3.1-2.2-5.2c0.6-1.8,2.3-2.6,4.7-2.6
		c2.7,0.1,4.1,1.9,5.6,3.9c2.5-1.6,4.9-3.1,7.5-4.7c-0.3-0.6-0.5-1.1-0.8-1.5c-3.4-5-8.3-6.5-14.2-6.2c-5.5,0.2-10.2,3.4-11.9,8.1
		c-1.9,5.2-0.6,11,3.7,14.5c1.8,1.5,4,2.6,6.1,3.7c2.5,1.3,5.2,2.3,7.7,3.6c1.8,0.9,2.8,2.6,2.4,4.6c-0.4,2.1-2,3.1-3.9,3.5
		c-4.2,0.9-7.7-0.3-10.3-3.7c-0.4-0.5-0.9-1.1-1.4-1.7C-117.3,166.9-119.8,168.4-122.7,170z M-156,170.9c2.6,5.8,8,9,14.8,8.9
		c8-0.1,12.9-4.2,13.7-12c0.5-4.4,0.3-9,0.3-13.4c0-6.4,0-12.8,0-19.2c0-1.5-0.5-2.1-2-2c-2.1,0.1-4.3,0.1-6.4,0
		c-1.1,0-1.5,0.4-1.5,1.5c0.1,1.5,0,3.1,0,4.6c0,8.8,0,17.7,0,26.5c0,4.1-2.3,6-6.3,5c-1.2-0.3-2.3-1.5-3.3-2.4
		c-0.6-0.5-0.9-1.3-1.5-2.1C-150.9,167.8-153.4,169.3-156,170.9z"/>
	<path class="st1" d="M-122.7,170c2.9-1.7,5.4-3.1,8-4.6c0.5,0.6,0.9,1.2,1.4,1.7c2.7,3.4,6.1,4.5,10.3,3.7c2-0.4,3.5-1.4,3.9-3.5
		c0.4-2.1-0.5-3.7-2.4-4.6c-2.5-1.3-5.2-2.3-7.7-3.6c-2.1-1.1-4.3-2.2-6.1-3.7c-4.2-3.5-5.6-9.3-3.7-14.5c1.7-4.7,6.5-7.9,11.9-8.1
		c5.8-0.3,10.8,1.2,14.2,6.2c0.3,0.4,0.5,0.9,0.8,1.5c-2.5,1.6-4.9,3.1-7.5,4.7c-1.5-2.1-2.9-3.9-5.6-3.9c-2.4-0.1-4.1,0.8-4.7,2.6
		c-0.7,2.1,0,3.9,2.2,5.2c2.4,1.3,4.9,2.3,7.4,3.5c1.6,0.8,3.1,1.6,4.6,2.5c5.2,3.2,7.1,7.9,6.2,13.8c-0.9,6-4.9,9.3-10.7,10.5
		c-7.2,1.5-13.8,0.4-19.3-4.8C-120.5,173.1-121.4,171.6-122.7,170z"/>
	<path class="st1" d="M-156,170.9c2.6-1.5,5.1-3.1,7.8-4.6c0.6,0.8,0.9,1.6,1.5,2.1c1,0.9,2.1,2.1,3.3,2.4c3.9,1,6.2-0.9,6.3-5
		c0.1-8.8,0-17.7,0-26.5c0-1.5,0-3.1,0-4.6c0-1.1,0.4-1.5,1.5-1.5c2.1,0,4.3,0.1,6.4,0c1.5-0.1,2,0.5,2,2c-0.1,6.4,0,12.8,0,19.2
		c0,4.5,0.2,9-0.3,13.4c-0.8,7.8-5.7,11.9-13.7,12C-148,179.9-153.4,176.7-156,170.9z"/>
</g>
<rect x="-1.2" y="-0.4" class="st2" width="102.4" height="100.9"/>
<text transform="matrix(1 0 0 1 25.1641 88.156)" class="st1 st3 st4">JS</text>
</svg>
